<svg width="297" height="297" viewBox="0 0 297 297" fill="none" xmlns="http://www.w3.org/2000/svg">
<g clip-path="url(#clip0_4:2)">
<path d="M45.432 35.049C45.424 35.049 45.415 35.049 45.407 35.049C42.598 35.049 39.956 36.144 37.961 38.134C35.944 40.146 34.833 42.825 34.833 45.677V205.042C34.833 210.886 39.606 215.652 45.474 215.667C70.212 215.726 111.658 220.882 140.25 250.803V84.023C140.25 82.042 139.744 80.181 138.789 78.641C115.322 40.849 70.226 35.107 45.432 35.049Z" fill="black"/>
<path d="M262.167 205.042V45.676C262.167 42.824 261.056 40.145 259.039 38.133C257.044 36.143 254.4 35.048 251.594 35.048C251.585 35.048 251.576 35.048 251.568 35.048C226.775 35.107 181.679 40.849 158.211 78.641C157.256 80.181 156.751 82.042 156.751 84.023V250.802C185.343 220.881 226.789 215.725 251.527 215.666C257.394 215.651 262.167 210.885 262.167 205.042Z" fill="black"/>
<path d="M286.373 71.801H278.667V205.042C278.667 219.963 266.51 232.13 251.566 232.167C230.583 232.217 195.985 236.32 171.482 259.511C213.86 249.135 258.534 255.88 283.994 261.682C287.173 262.406 290.458 261.658 293.005 259.628C295.543 257.603 296.999 254.576 296.999 251.327V82.427C297 76.568 292.232 71.801 286.373 71.801Z" fill="black"/>
<path d="M18.332 205.042V71.801H10.626C4.768 71.801 0 76.568 0 82.427V251.324C0 254.574 1.456 257.6 3.994 259.625C6.539 261.654 9.821 262.405 13.005 261.679C38.465 255.876 83.14 249.132 125.516 259.508C101.014 236.318 66.416 232.216 45.433 232.166C30.49 232.13 18.332 219.963 18.332 205.042Z" fill="black"/>
<path d="M123.29 101.016C124.74 101.706 125.68 103.456 126.02 106.236C124.95 114.306 124.09 120.006 123.37 123.396C122.69 126.686 122.12 129.636 121.69 132.226C121.35 134.856 121.12 136.706 120.98 137.706C120.92 138.726 120.7 140.806 120.37 144.056C120.1 147.326 119.88 150.696 119.59 154.096C119.46 157.496 119.38 159.536 119.3 160.176C119.33 160.856 119.13 165.206 118.87 173.476C118.63 182.016 118.31 187.576 117.88 189.726C117.49 191.846 116.44 192.956 114.73 193.046C113.09 193.146 111.68 192.476 110.52 191.006C105.71 182.826 100.95 172.756 96.3901 161.716C95.3001 159.036 94.1001 156.186 92.7501 153.166C91.5501 150.236 90.6401 148.076 90.0501 146.646C89.6001 145.566 89.1401 144.516 88.7101 143.446C87.0201 146.356 84.8001 151.336 82.0601 158.256C79.3701 165.046 76.9301 170.346 74.7001 174.016C73.1701 175.096 71.2801 174.716 69.1601 173.006C64.6901 169.706 60.5101 159.596 57.0901 145.046C57.0701 144.986 56.9401 144.666 56.7301 144.056C56.5801 143.416 56.3201 142.296 56.0101 140.616C55.7501 138.756 55.3801 136.586 54.9401 134.026C54.5901 130.986 53.1801 115.996 51.0001 85.2865C50.9901 82.5065 51.7501 80.2465 53.2501 78.5765C54.8001 76.9565 56.5401 76.6265 58.3701 77.3965C60.5901 78.4165 62.0801 80.6465 62.7301 84.3165C64.7701 123.086 67.8301 144.646 71.1601 156.856C71.8201 155.986 73.4501 152.866 76.0401 147.136C78.7001 140.866 81.2301 135.646 83.5401 131.786C85.8601 127.736 88.1501 125.966 90.3101 126.426C91.7501 126.756 93.0201 127.906 94.0301 129.836C99.8401 147.806 105.3 161.156 109.8 169.476C109.74 168.296 109.9 165.246 110.29 160.456C110.5 157.386 110.76 154.346 110.99 151.356C110.94 150.786 110.95 149.996 111.07 148.996C111.21 147.996 111.32 147.046 111.32 146.106C111.41 145.096 111.48 144.206 111.62 143.416C111.93 140.626 112.27 137.846 112.62 135.096C114.64 122.516 116.41 112.366 117.6 104.246C118.04 102.846 118.81 101.846 119.93 101.226C121.1 100.586 122.21 100.506 123.29 101.016Z" fill="#C32A2A"/>
<path d="M182.857 178.516C181.819 177.466 181.486 176.286 181.8 174.967C182.133 173.537 182.866 172.357 184.037 171.358C185.323 157.512 186.475 142.446 184.532 127.11C183.438 122.701 181.286 114.174 178.001 101.397C177.982 99.9677 178.382 98.4682 179.172 96.8686C179.981 95.1391 180.895 93.8894 181.857 93.1896C182.809 92.4798 183.409 92.0799 183.657 92.02C195.206 89.1908 208.641 92.2899 221.191 100.788C231.912 110.945 236.959 125.761 239.215 140.596C243.814 151.803 239.767 161.351 224.247 173.287C219.239 177.096 213.764 180.025 208.165 181.635C202.89 182.695 198.625 182.775 195.149 182.255C195.349 183.164 195.321 184.474 195.006 186.064C194.664 187.803 193.454 189.463 191.379 190.952C189.455 192.472 187.36 193.152 185.151 192.972C183.095 192.812 182.114 191.152 182.314 188.113C182.504 184.834 182.704 181.645 182.857 178.516ZM193.064 123.401C194.892 138.667 195.387 153.863 195.349 169.338C197.539 169.748 201.452 169.438 207.223 168.209C213.183 166.639 218.896 163.85 224.171 160.221C229.246 156.812 231.455 153.733 231.036 150.804C230.798 148.554 230.522 146.845 230.265 145.655C228.303 134.638 224.257 123.891 217.249 115.024C209.755 106.806 199.872 102.537 188.789 102.417C191.055 112.824 192.378 119.752 193.064 123.401Z" fill="#C32A2A"/>
</g>
<defs>
<clipPath id="clip0_4:2">
<rect width="296.999" height="296.999" fill="white"/>
</clipPath>
</defs>
</svg>
